<svg width="27" height="27" viewBox="0 0 27 27" fill="none" xmlns="http://www.w3.org/2000/svg">
<path d="M13.5 10.2853C12.8642 10.2856 12.2428 10.4743 11.7143 10.8277C11.1859 11.1811 10.774 11.6832 10.5309 12.2706C10.2877 12.8581 10.2243 13.5044 10.3484 14.1279C10.4726 14.7514 10.7789 15.3241 11.2285 15.7736C11.6781 16.223 12.2509 16.5291 12.8745 16.653C13.498 16.7769 14.1444 16.7132 14.7317 16.4699C15.319 16.2265 15.821 15.8145 16.1742 15.2859C16.5274 14.7572 16.7159 14.1358 16.7159 13.5C16.7153 12.6474 16.3762 11.8299 15.7732 11.2272C15.1702 10.6244 14.3526 10.2856 13.5 10.2853ZM21.016 7.81433C20.8524 7.39959 20.6052 7.0229 20.29 6.70764C19.9747 6.39237 19.598 6.14524 19.1833 5.98159C17.9176 5.48196 14.9042 5.59406 13.5 5.59406C12.0958 5.59406 9.08538 5.47775 7.81614 5.98159C7.4014 6.14524 7.02471 6.39237 6.70944 6.70764C6.39417 7.0229 6.14705 7.39959 5.98339 7.81433C5.48438 9.07996 5.59587 12.0964 5.59587 13.4994C5.59587 14.9024 5.48438 17.9152 5.9858 19.1851C6.14946 19.5998 6.39658 19.9765 6.71185 20.2918C7.02712 20.607 7.40381 20.8542 7.81855 21.0178C9.08417 21.5174 12.0976 21.4053 13.5024 21.4053C14.9073 21.4053 17.9164 21.5217 19.1857 21.0178C19.6004 20.8542 19.9771 20.607 20.2924 20.2918C20.6076 19.9765 20.8548 19.5998 21.0184 19.1851C21.5217 17.9194 21.4059 14.903 21.4059 13.5C21.4059 12.097 21.5217 9.08478 21.0184 7.81493L21.016 7.81433ZM13.5 18.442C12.5226 18.442 11.5671 18.1521 10.7544 17.6091C9.94169 17.0661 9.30827 16.2942 8.93422 15.3912C8.56017 14.4882 8.46231 13.4945 8.65299 12.5359C8.84368 11.5772 9.31436 10.6966 10.0055 10.0055C10.6966 9.31436 11.5772 8.84368 12.5359 8.65299C13.4945 8.46231 14.4882 8.56017 15.3912 8.93422C16.2942 9.30827 17.0661 9.94169 17.6091 10.7544C18.1521 11.5671 18.442 12.5226 18.442 13.5C18.4428 14.1492 18.3155 14.7922 18.0674 15.3921C17.8193 15.9921 17.4553 16.5372 16.9963 16.9963C16.5372 17.4553 15.9921 17.8193 15.3921 18.0674C14.7922 18.3155 14.1492 18.4428 13.5 18.442ZM18.6457 9.50424C18.4175 9.50436 18.1944 9.43681 18.0046 9.31013C17.8149 9.18345 17.6669 9.00334 17.5795 8.79257C17.4921 8.5818 17.4692 8.34984 17.5136 8.12604C17.5581 7.90224 17.6679 7.69664 17.8292 7.53526C17.9905 7.37388 18.196 7.26395 18.4198 7.2194C18.6436 7.17484 18.8755 7.19765 19.0864 7.28494C19.2972 7.37223 19.4774 7.52008 19.6041 7.70979C19.7309 7.8995 19.7986 8.12254 19.7986 8.35071C19.7992 8.50224 19.7699 8.65239 19.7124 8.79257C19.6549 8.93275 19.5703 9.06019 19.4634 9.16758C19.3565 9.27498 19.2294 9.36021 19.0895 9.4184C18.9496 9.47658 18.7996 9.50657 18.6481 9.50665L18.6457 9.50424ZM24.1071 0H2.89286C2.12562 0 1.38981 0.304782 0.847298 0.847298C0.304782 1.38981 0 2.12562 0 2.89286L0 24.1071C0 24.8744 0.304782 25.6102 0.847298 26.1527C1.38981 26.6952 2.12562 27 2.89286 27H24.1071C24.8744 27 25.6102 26.6952 26.1527 26.1527C26.6952 25.6102 27 24.8744 27 24.1071V2.89286C27 2.12562 26.6952 1.38981 26.1527 0.847298C25.6102 0.304782 24.8744 0 24.1071 0ZM23.0754 17.4777C22.9976 19.0223 22.645 20.391 21.5174 21.5156C20.3898 22.6402 19.0223 23 17.4795 23.0735C15.8878 23.1633 11.1158 23.1633 9.52413 23.0735C7.97946 22.9958 6.6156 22.6426 5.48618 21.5156C4.35676 20.3886 4.00179 19.0193 3.92826 17.4777C3.83846 15.8854 3.83846 11.1128 3.92826 9.52232C4.006 7.97766 4.35435 6.60897 5.48618 5.48438C6.61801 4.35978 7.98549 4.0042 9.52413 3.93067C11.1158 3.84087 15.8878 3.84087 17.4795 3.93067C19.0242 4.00842 20.3922 4.36158 21.5174 5.48859C22.6426 6.6156 23.0018 7.98489 23.0754 9.52955C23.1652 11.1158 23.1652 15.8842 23.0754 17.4777Z" fill="#F0F0F0"/>
</svg>
