<svg width="174" height="222" viewBox="0 0 174 222" fill="none" xmlns="http://www.w3.org/2000/svg">
<path fill-rule="evenodd" clip-rule="evenodd" d="M135.715 153.874C138.699 146.156 140.266 137.896 140.331 129.546C133.468 130.623 118.48 133.248 108.5 137C100.574 139.98 95.1789 145.142 90.0108 150.087C83.3044 156.504 76.9797 162.556 66 163C57.2748 163.353 51.9387 162.638 44 159C30.1356 152.647 19 129 19 129C19 137.536 20.5692 145.988 23.618 153.874C26.6668 161.761 31.1354 168.926 36.7689 174.962C42.4023 180.998 49.0901 185.786 56.4505 189.052C63.811 192.319 71.6998 194 79.6667 194C87.6335 194 95.5224 192.319 102.883 189.052C110.243 185.786 116.931 180.998 122.564 174.962C128.198 168.926 132.667 161.761 135.715 153.874Z" fill="#8F542E"/>
<path fill-rule="evenodd" clip-rule="evenodd" d="M159.09 141.786C159.694 137.564 160 133.29 160 129H147.4C147.4 138.455 145.662 147.818 142.285 156.553C138.908 165.289 133.958 173.226 127.718 179.912C121.477 186.598 114.069 191.901 105.916 195.519C97.7632 199.138 89.0248 201 80.2 201C71.3752 201 62.6367 199.138 54.4837 195.519C46.3306 191.901 38.9225 186.598 32.6824 179.912C26.4423 173.226 21.4924 165.289 18.1153 156.553C14.7382 147.818 13 138.455 13 129H0C0 140.162 2.06926 151.215 6.08963 161.528C10.11 171.841 16.0028 181.211 23.4315 189.104C30.0167 196.101 37.6945 201.815 46.1142 205.998C23.4328 207.429 8 210.252 8 213.5C8 218.194 40.2355 222 80 222C119.765 222 152 218.194 152 213.5C152 210.252 136.567 207.429 113.886 205.998C122.305 201.815 129.983 196.101 136.569 189.104C137.517 188.096 138.441 187.064 139.339 186.009C141.529 186.983 143.856 187.629 146.246 187.921C149.573 188.328 152.949 188.039 156.159 187.073C159.369 186.107 162.344 184.485 164.895 182.31C167.446 180.135 169.517 177.454 170.978 174.437C172.439 171.42 173.258 168.132 173.382 164.782C173.507 161.432 172.934 158.093 171.701 154.976C170.468 151.858 168.601 149.031 166.219 146.673C164.152 144.627 161.737 142.973 159.09 141.786ZM145.543 177.737C148.871 172.685 151.679 167.252 153.91 161.528C155.146 158.358 156.198 155.118 157.061 151.826C158.272 152.472 159.386 153.292 160.365 154.262C161.764 155.647 162.86 157.306 163.584 159.136C164.307 160.966 164.643 162.926 164.57 164.893C164.497 166.859 164.017 168.789 163.159 170.56C162.302 172.331 161.086 173.905 159.588 175.181C158.091 176.458 156.345 177.41 154.46 177.977C152.576 178.544 150.595 178.713 148.641 178.475C147.582 178.345 146.542 178.097 145.543 177.737Z" fill="#B2784A"/>
<path d="M58.0045 30C58.0045 30 55.4862 45.2695 58.0045 54.5C62.1575 69.7225 82.1266 69.4014 84.5045 85C86.7123 99.4826 71.0045 120 71.0045 120C71.0045 120 73.4015 105.656 71.0045 97C67.0189 82.607 48.8265 83.0605 45.5045 68.5C41.9883 53.0882 58.0045 30 58.0045 30Z" fill="#8F542E"/>
<path d="M66 46C60.7166 27.8586 81 0 81 0C81 0 73.0999 24.5318 78 39C83.1407 54.1789 102.512 53.3584 106 69C110.09 87.3444 86.5 113 86.5 113C86.5 113 98.5783 89.6065 94.5 75C90.2297 59.7062 70.4399 61.2454 66 46Z" fill="#8F542E"/>
</svg>
