<svg width="27" height="27" viewBox="0 0 27 27" fill="none" xmlns="http://www.w3.org/2000/svg">
<path d="M23.1429 0H3.85714C1.72547 0 0 1.72547 0 3.85714V23.1429C0 25.2751 1.72487 27 3.85714 27H23.1429C25.2751 27 27 25.2751 27 23.1429V3.85714C27 1.72547 25.2763 0 23.1429 0ZM23.1429 18.3214C23.1429 19.3864 22.2792 20.25 21.2143 20.25H5.78571C4.72078 20.25 3.85714 19.3864 3.85714 18.3214V11.6859L12.2042 15.8607C12.6141 16.0614 13.054 16.1638 13.5 16.1638C13.946 16.1638 14.389 16.0621 14.794 15.8597L23.1429 11.6859V18.3214ZM23.1429 9.52835L13.9339 14.134C13.6627 14.2696 13.3426 14.2696 13.0715 14.134L3.85714 9.52835V8.67857C3.85714 7.61364 4.72078 6.75 5.78571 6.75H21.2143C22.2792 6.75 23.1429 7.61364 23.1429 8.67857V9.52835Z" fill="#F0F0F0"/>
</svg>
