<svg width="50" height="50" viewBox="0 0 50 50" fill="none" xmlns="http://www.w3.org/2000/svg">
<path d="M42.8571 0H7.14286C3.19754 0 0 3.19754 0 7.14286V42.8571C0 46.8025 3.19754 50 7.14286 50H42.8571C46.8025 50 50 46.8025 50 42.8571V7.14286C50 3.19754 46.7969 0 42.8571 0ZM39.2411 32.3103L37.9442 37.9342C37.7619 38.7294 37.0625 39.2857 36.2433 39.2857C22.1696 39.2857 10.7188 27.8348 10.7188 13.75C10.7188 12.9321 11.275 12.2333 12.0703 12.0513L17.6931 10.7533C18.5127 10.5633 19.3538 10.9887 19.6942 11.7647L22.2913 17.8228C22.5948 18.536 22.3898 19.3663 21.79 19.8563L18.7835 22.3214C20.6797 26.1842 23.8214 29.3248 27.6864 31.2221L30.144 28.2188C30.6288 27.6171 31.4665 27.4096 32.1797 27.7183L38.2333 30.3132C39.0067 30.6473 39.4308 31.4955 39.2411 32.3103Z" fill="#8F542E"/>
</svg>
