<svg width="20" height="21" viewBox="0 0 20 21" fill="none" xmlns="http://www.w3.org/2000/svg">
<path d="M17.1429 0.428589H2.85714C1.27902 0.428589 0 1.70761 0 3.28573V17.5714C0 19.1496 1.27902 20.4286 2.85714 20.4286H17.1429C18.721 20.4286 20 19.1496 20 17.5714V3.28573C20 1.70761 18.7188 0.428589 17.1429 0.428589ZM15.6964 13.3527L15.1777 15.6023C15.1048 15.9203 14.825 16.1429 14.4973 16.1429C8.86786 16.1429 4.2875 11.5625 4.2875 5.92859C4.2875 5.60145 4.51 5.32189 4.82812 5.24912L7.07723 4.72993C7.40509 4.6539 7.74152 4.82408 7.87768 5.13448L8.91652 7.5577C9.0379 7.84301 8.95593 8.17511 8.71598 8.37109L7.51339 9.35716C8.27188 10.9023 9.52857 12.1585 11.0746 12.9174L12.0576 11.7161C12.2515 11.4754 12.5866 11.3924 12.8719 11.5159L15.2933 12.5539C15.6027 12.6875 15.7723 13.0268 15.6964 13.3527Z" fill="#B2784A"/>
</svg>
