<svg width="27" height="27" viewBox="0 0 27 27" fill="none" xmlns="http://www.w3.org/2000/svg">
<path d="M23.1429 0H3.85714C1.72667 0 0 1.72667 0 3.85714V23.1429C0 25.2733 1.72667 27 3.85714 27H23.1429C25.2733 27 27 25.2733 27 23.1429V3.85714C27 1.72667 25.2703 0 23.1429 0ZM21.1902 17.4475L20.4899 20.4844C20.3914 20.9139 20.0138 21.2143 19.5714 21.2143C11.9716 21.2143 5.78813 15.0308 5.78813 7.425C5.78813 6.98336 6.0885 6.60596 6.51797 6.50772L9.55426 5.80681C9.99687 5.70417 10.451 5.93391 10.6349 6.35296L12.0373 9.6243C12.2012 10.0095 12.0905 10.4578 11.7666 10.7224L10.1431 12.0536C11.167 14.1394 12.8636 15.8354 14.9506 16.8599L16.2777 15.2381C16.5395 14.9132 16.9919 14.8012 17.377 14.9679L20.646 16.3691C21.0636 16.5496 21.2926 17.0076 21.1902 17.4475Z" fill="#F0F0F0"/>
</svg>
